# xmcd
#
# Track frame offsets:
#	150
#	10920
#	22800
#	37803
#	47533
#	60478
#	79783
#	90283
#	101468
#	112256
#	129441
#	139333
#	148383
#	161323
#	173993
#	187808
#	199286
#	215348
#	226156
#	236733
#
# Disc length: 3302 seconds
#
# Revision: 0
# Processed by: cddbd v1.5.1PL2 Copyright (c) Steve Scherf et al.
# Submitted via: dBpowerAMP V4.0
#
DISCID=030ce414
DTITLE=Screamin' Jay Hawkins - Portrait of a man
DYEAR=1900
DGENRE=Blues
TTITLE0=Little Demon
TTITLE1=Temptation
TTITLE2=It's only make believe
TTITLE3=person to person
TTITLE4=If you are but a dream
TTITLE5=Portrait of a man
TTITLE6=Hong Kong
TTITLE7=Itty bitty pretty one
TTITLE8=Yellow coat
TTITLE9=Please don't leave me
TTITLE10=frenzy
TTITLE11=You made me love you
TTITLE12=Orange coloured sky
TTITLE13=ashes
TTITLE14=Alligator wine
TTITLE15=Deep Purple
TTITLE16=I don't know
TTITLE17=I love Paris
TTITLE18=there's something wrong with you
TTITLE19=I put a spell on you
EXTD=20 songs of the voodoo legend
EXTT0=
EXTT1=
EXTT2=
EXTT3=
EXTT4=
EXTT5=
EXTT6=
EXTT7=
EXTT8=
EXTT9=
EXTT10=
EXTT11=
EXTT12=
EXTT13=
EXTT14=
EXTT15=
EXTT16=
EXTT17=
EXTT18=
EXTT19=
PLAYORDER=
